<?xml version="1.0" standalone="no"?>
<!DOCTYPE svg PUBLIC "-//W3C//DTD SVG 1.1//EN" "http://www.w3.org/Graphics/SVG/1.1/DTD/svg11.dtd" >
<svg xmlns="http://www.w3.org/2000/svg" xmlns:xlink="http://www.w3.org/1999/xlink" version="1.1" viewBox="-10 0 522 512">
   <path fill="currentColor"
d="M250.37 260.918c3.00098 11.2852 16.2646 17.9541 29.625 14.8945c13.3604 -3.05859 21.7578 -14.6875 18.7559 -25.9736c-3.00098 -11.2852 -16.2646 -17.9541 -29.625 -14.8945c-13.3594 3.05859 -21.7568 14.6875 -18.7559 25.9736zM131.562 237.885
c0 14.957 8.60547 27.082 19.2217 27.082s19.2217 -12.125 19.2217 -27.082c0 -14.958 -8.60547 -27.083 -19.2217 -27.083s-19.2217 12.125 -19.2217 27.083zM358.564 165.414c0 14.957 8.60547 27.082 19.2217 27.082s19.2217 -12.125 19.2217 -27.082
s-8.60547 -27.082 -19.2217 -27.082s-19.2217 12.125 -19.2217 27.082zM178.685 94.9092c-3.05566 4.33594 -5.93457 7.93457 -8.60645 11.791c-17.7568 25.2949 -33.0459 52.9287 -44.4404 83.9551c-6.42871 17.5918 -11.4365 35.9873 -14.0166 55.4805
c-2.25098 17.2734 -2.69629 34.8721 -0.344727 52.5908c1.03223 7.48828 1.67383 15.208 1.30859 22.6367c-0.0751953 3.9668 -0.557617 7.66895 -1.63965 11.3447c-2.3623 7.34277 -6.6709 9.8877 -13.1172 7.875c-3.62598 -1.14551 -6.68457 -3.26367 -9.9502 -5.63574
c-6.54785 -5.24316 -12.335 -11.6943 -17.7471 -18.874c-16.6494 -22.0518 -29.9883 -46.6924 -39.043 -74.623c-3.53906 -11.0693 -6.0791 -22.0967 -6.24609 -33.7666c-0.280273 -8.94434 1.25195 -17.3154 5.41211 -24.582
c0.760742 -1.20996 1.11328 -2.68164 1.67285 -3.89844c3.72168 -8.52637 9.09668 -15.2441 14.8857 -21.4482c9.65137 -10.2568 20.7715 -18.2178 32.3223 -25.168c19.1846 -11.5869 39.4609 -20.1484 60.3994 -26.6973
c12.4424 -3.93457 24.9092 -7.12305 37.3604 -10.8096c0.59082 -0.227539 0.791016 -0.191406 1.79004 -0.149414v-0.0214844zM289.399 63.416c1.97363 -0.661133 3.93945 -1.57031 5.91406 -2.22754c19.54 -6.6084 39.5107 -12.2051 59.7432 -15.8066
c18.6426 -3.4209 37.54 -5.09375 56.7461 -3.28027c11.001 0.96582 21.8408 3.16797 32.5674 8.09277c4.0498 1.90918 8.11426 4.31738 11.7949 7.20508c0.416016 0.513672 1.02246 0.791016 1.62988 1.0625c6.08496 3.2373 10.8506 8.90039 14.4492 15.5059
c4.8584 8.64453 7.74414 17.9492 9.85352 27.9648c3.24023 14.2832 4.4834 28.4795 4.93555 42.8916c0.655273 20.8711 -0.695312 41.4092 -5.06445 61.0742c-1.21875 5.65527 -3.04492 11.0352 -5.07812 16.1602c-1.28906 3.41797 -3.18555 6.56348 -5.09668 9.21094
c-4.59863 6.00684 -10.3838 6.00684 -15.748 0.317383c-2.27539 -2.5791 -4.3584 -5.39746 -6.25 -8.45605c-3.36719 -5.60254 -5.95117 -11.6689 -8.34277 -17.9746c-8.74609 -24.4434 -21.7607 -45.0996 -37.6865 -63.1514
c-15.5107 -17.5361 -32.5176 -31.9111 -50.8604 -44.3584c-19.9717 -13.5098 -40.4648 -24.5596 -61.8779 -33.168c-0.607422 -0.275391 -1.01465 -0.540039 -1.62109 -0.81543zM165.467 294.955c-26.3154 -0.249023 -46.9102 -23.3203 -46.4531 -52.1582
c0.458008 -28.5869 21.9678 -50.9043 47.8262 -50.1523c24.7139 0.75293 45.5381 22.5684 45.5381 51.4062c0 29.3389 -21.7393 50.9043 -46.9111 50.9043zM320.578 184.723c0 -25.5781 18.3066 -49.9014 44.6221 -50.9043
c25.1719 -0.75293 46.9111 20.0605 48.2842 48.1465c1.37207 29.5898 -19.2227 52.4092 -43.9365 53.9141c-13.2725 0.75293 -24.9424 -4.26367 -34.3242 -14.2939c-9.83984 -9.7793 -15.332 -22.0674 -14.6455 -36.8623zM365.429 162.906l12.3574 -13.541
c-6.86523 0 -12.5859 6.01855 -12.3574 13.541zM423.442 317.441c3.03516 13.0146 5.61426 26.2764 6.10547 39.6934c-0.147461 8.67969 -1.71191 16.8105 -6.5918 23.332c-3.55469 4.58398 -8.0957 7.64355 -13.1387 9.69238
c-5.04395 2.04785 -10.0781 4.34473 -15.1221 6.39258c-2.5166 1.14844 -4.77344 3.05273 -7.03125 4.95312c-6.30469 5.72461 -13.3535 10.1807 -20.9141 13.377c-9.15527 4.13086 -18.8223 7.00293 -28.7402 9.36816c-12.9092 3.24902 -25.792 7.24316 -38.666 11.4854
c-8.27734 2.67383 -16.8066 4.84277 -25.6143 5.76074c-4.4082 0.334961 -8.5918 0.428711 -13 0.763672c-3.74609 -0.633789 -7.49219 -1.26758 -11.4609 -1.66211c-3.03809 -0.375977 -6.05762 -0.237305 -9.06836 0.149414
c-4.85547 0.814453 -9.46973 1.88477 -14.3252 2.7002c-8.79004 1.41504 -17.0068 -0.624023 -24.2598 -8.08594c-3.86426 -3.86328 -6.83301 -8.68652 -9.34473 -13.7422c-3.7666 -7.58203 -6.62012 -15.627 -9.25 -23.9121
c-3.15039 -9.79297 -5.62012 -20.0576 -8.08984 -30.3223c-2.98926 -11.7715 -2.94238 -23.1846 0.851562 -33.9639c1.67285 -5.14941 3.82031 -10.0332 5.73535 -14.9258c0.419922 -1.22461 0.84082 -2.4502 1.27051 -3.42773l3.24902 -6.58008
c1.53027 -2.67383 3.07031 -5.09863 4.60156 -7.77148c7.46582 -12.1338 15.9092 -22.9902 25.8057 -32.3047c6.52832 -5.96387 13.3086 -11.4229 20.5908 -15.8701c1.36133 -0.943359 2.03125 -1.66211 2.19336 -3.6416
c0.731445 -5.43262 2.91602 -9.32324 6.76758 -12.1592c1.35254 -1.19141 2.9375 -2.375 4.29004 -3.56543c5.64258 -4.75488 12.0195 -8.49219 18.9277 -10.4717c6.67383 -1.98828 13.4209 -1.99023 20.4375 -0.988281
c0.699219 0.0263672 1.40625 0.305664 2.10547 0.327148c5.58203 -0.0439453 10.3604 3.35742 14.708 7.73535c0.967773 1.02734 1.67578 1.30078 2.84082 1.34375c4.89258 0.176758 9.78516 0.358398 14.6865 0.785156c2.7959 0.104492 5.37598 0.697266 8.19043 1.29492
c9.61523 2.08887 19.249 4.67578 28.4707 8.73633c5.19824 2.17578 10.4053 4.59961 15.4072 7.76074c0.716797 0.522461 1.41602 0.545898 2.13281 1.07129c2.38477 1.57617 4.76855 3.15234 7.15332 4.72852c2.62598 1.83301 5.25195 3.66895 7.8877 5.74805
c5.74609 4.42969 11.2773 9.34668 15.9307 15.7207c3.42578 4.59277 5.95508 10.1445 7.5625 15.9111c2.39648 8.27637 4.78418 16.3037 6.71484 24.5635zM288.799 236.573l-31.8223 7.76562l20.4717 12.6611zM341.928 327.852
c0.457031 -0.232422 0.626953 -1.96289 0.151367 -2.22949c-0.269531 -1.00195 -0.75293 -1.51465 -0.995117 -1.77246c-0.744141 -1.26758 -2.12402 -0.821289 -2.58105 -0.59082c-1.82715 0.927734 -2.73242 1.63574 -4.7832 2.80273
c-3.49805 -6.58008 -6.7627 -13.1523 -10.252 -19.4834l-0.223633 0.241211c0.282227 7.70312 0.563477 15.4053 0.854492 23.3564c-17.2002 6.81348 -34.9297 11.8711 -53.1797 15.4199c-3.2832 -7.06836 -6.79004 -13.8965 -10.0645 -20.7168
c-0.425781 7.42871 0.0791016 14.8916 -0.104492 22.5771c-2.32031 0.172852 -3.25195 0.151367 -5.33984 0.300781c-2.08789 0.171875 -2.24805 2.15039 -2.21191 3.14453c0.305664 1.99707 1.73145 2.80566 2.66309 2.82715
c4.63184 -0.574219 8.8252 -0.419922 13.4482 -1.24414c7.40039 -1.21777 14.5498 -2.94043 21.9238 -4.90332c14.5225 -3.68555 28.542 -8.38184 42.2754 -14.5781c2.28418 -1.15723 4.55859 -2.56348 6.84277 -3.71973
c0.448242 -0.480469 1.12891 -0.951172 1.57617 -1.43164z" />
</svg>
