<?xml version="1.0" encoding="UTF-8" standalone="no"?>
<!-- Created with Inkscape (http://www.inkscape.org/) -->

<svg
   width="40.3769mm"
   height="53.648602mm"
   viewBox="0 0 40.3769 53.648602"
   version="1.1"
   id="svg331"
   sodipodi:docname="GnuPG.svg"
   inkscape:version="1.2.2 (b0a8486541, 2022-12-01)"
   xmlns:inkscape="http://www.inkscape.org/namespaces/inkscape"
   xmlns:sodipodi="http://sodipodi.sourceforge.net/DTD/sodipodi-0.dtd"
   xmlns="http://www.w3.org/2000/svg"
   xmlns:svg="http://www.w3.org/2000/svg">
  <sodipodi:namedview
     id="namedview333"
     pagecolor="#505050"
     bordercolor="#eeeeee"
     borderopacity="1"
     inkscape:showpageshadow="0"
     inkscape:pageopacity="0"
     inkscape:pagecheckerboard="0"
     inkscape:deskcolor="#505050"
     inkscape:document-units="mm"
     showgrid="false"
     inkscape:zoom="1.6819304"
     inkscape:cx="167.06993"
     inkscape:cy="174.79915"
     inkscape:window-width="1680"
     inkscape:window-height="999"
     inkscape:window-x="0"
     inkscape:window-y="27"
     inkscape:window-maximized="1"
     inkscape:current-layer="layer1" />
  <defs
     id="defs328" />
  <g
     inkscape:label="Calque 1"
     inkscape:groupmode="layer"
     id="layer1"
     transform="translate(-31.409008,-46.167225)">
    <path
       d="m 31.413308,72.059825 h 2.8387 v -8.5449 c 0,-9.5791 7.7686,-17.3477 17.3476,-17.3477 9.5793,0 17.3474,7.7686 17.3474,17.3477 v 8.4605 c -0.041,0.0287 -0.0818,0.0568 -0.122,0.0844 h 3e-4 l -0.0264,0.0178 -0.003,0.002 -0.003,0.0017 -0.003,0.0019 -0.0131,0.009 -0.0155,0.0105 -0.003,0.0021 -0.017,0.0115 -8e-4,6e-4 -0.007,0.0045 -0.004,0.0025 -0.008,0.0057 -0.002,0.0013 -0.0103,0.0069 h -1e-4 l -0.0103,0.007 -0.0139,0.0093 -0.007,0.0045 -0.006,0.0037 -0.005,0.0031 -0.0156,0.0106 -0.0151,0.0099 -7e-4,5e-4 -0.0196,0.013 -0.004,0.0028 -0.0239,0.0157 -0.002,0.0014 -0.01,0.0065 -3e-4,2e-4 -0.004,0.0024 -0.0313,0.0205 -0.005,0.0032 -0.007,0.0045 -0.003,0.0019 -0.002,0.0015 -0.0161,0.0105 -0.002,9e-4 -4e-4,3e-4 -0.001,6e-4 -0.0184,0.0119 -0.004,0.0025 -0.006,0.0038 -0.006,0.0035 -0.004,0.0027 -0.01,0.0063 -0.009,0.0058 -7e-4,3e-4 -0.01,0.0063 -10e-4,7e-4 -0.009,0.0054 -0.003,0.0018 -0.007,0.0045 -0.005,0.0028 -0.005,0.0032 -0.006,0.0039 -0.004,0.0022 -0.0527,0.0331 -0.0112,0.0068 -0.003,0.0017 -0.0282,0.0175 -0.002,0.0014 -0.0321,0.0195 -8e-4,5e-4 -0.002,0.0014 -0.009,0.0052 -5e-4,3e-4 -0.009,0.0056 -10e-4,6e-4 -0.008,0.0049 -0.008,0.0048 -0.001,7e-4 -0.004,0.0026 -0.0139,0.0083 -0.007,0.0045 -0.0106,0.0064 -0.031,0.0182 -0.031,0.0182 -0.0312,0.0183 -0.0312,0.0184 -0.063,0.0368 -0.0317,0.0184 -0.0318,0.0186 -0.0132,0.0076 -0.0831,0.048 -0.0323,0.0186 -0.0326,0.0186 -0.0326,0.0188 -0.0429,0.0245 -0.056,0.0317 -0.0332,0.0188 -0.129,0.0725 -0.006,0.003 -0.034,0.0189 -0.034,0.0191 -0.008,0.0042 -0.0453,0.025 -0.1017,0.0559 -0.0478,0.0262 c -0.0488,0.0265 -0.0981,0.0532 -0.1479,0.0799 l -0.0127,0.0069 -0.0232,0.0124 -0.0724,0.0385 -0.0364,0.0194 -0.006,0.0032 -0.0669,0.0353 -3e-4,2e-4 -0.037,0.0193 -0.0106,0.0055 -0.0638,0.0334 -0.0374,0.0194 -0.0343,0.0177 c -0.0467,0.0242 -0.0939,0.0484 -0.1415,0.0726 l -0.0389,0.0198 c -0.0559,0.0283 -0.1124,0.0568 -0.1695,0.0852 l -5e-4,2e-4 c -0.0545,0.0271 -0.1095,0.0543 -0.1651,0.0815 l -0.0552,0.027 c -0.0604,0.0293 -0.1213,0.0589 -0.183,0.0884 h -3e-4 c -3.445,1.6457 -8.9698,3.3967 -19.458,4.1496 -7.5135,0.5398 -12.0684,3.8468 -15.0393,7.8378 v -13.6174 z m 10.8293,0 h 18.7139 v -8.5449 c 0,-5.1671 -4.19,-9.3571 -9.3569,-9.3571 -5.1668,0 -9.357,4.19 -9.357,9.3571 z m 24.2416,1.3477 c -0.056,0.0283 -0.1123,0.0567 -0.1695,0.0852 m -6.8566,-23.1288 c -2.2246,-1.3293 -4.8253,-2.0941 -7.6044,-2.0941 -7.6178,0 -13.897,5.7395 -14.7512,13.1284 2.2332,-6.9868 8.7795,-12.0479 16.5063,-12.0479 2.0525,0 4.0218,0.358 5.8493,1.0136 z m 12.3278,24.9666 v 24.485301 h -34.5405 c 3.8076,-2.117 6.6453,-1.9014 11.3452,-1.7528 6.4003,0.2024 13.4724,-2.4788 16.9505,-6.029 3.4785,-3.5506 -0.3148,-0.8401 -4.2524,0.1588 -3.9382,0.9983 -11.5585,1.1046 -16.6522,-0.2343 16.043,0.2187 22.2867,-4.9709 25.8324,-9.618601 3.5455,-4.6476 -1.5335,-0.8069 -4.8238,0.7953 -3.2901,1.6037 -9.0284,2.7494 -15.3383,1.9139 9.5512,-0.0198 16.8185,-4.7928 21.4791,-9.7186 z"
       style="font-weight:normal;font-size:40.3513px;font-family:CastleT;fill:#000000"
       id="path326" />
  </g>
</svg>
